<svg data-name="Livello 1" viewBox="0 0 128 128" xmlns="http://www.w3.org/2000/svg"><path d="M91 0H37a11 11 0 0 0-11 11v106a11 11 0 0 0 11 11h54a11 11 0 0 0 11-11V11A11 11 0 0 0 91 0zM32 22.69h64v76.89H32zM37 6h54a5 5 0 0 1 5 5v5.69H32V11a5 5 0 0 1 5-5zm54 116H37a5 5 0 0 1-5-5v-11.42h64V117a5 5 0 0 1-5 5z" fill="#4d4d4d" class="fill-000000"></path><circle cx="64" cy="113.91" r="6" fill="#4d4d4d" class="fill-000000"></circle><path d="M56.13 14.22h15.75a3 3 0 1 0 0-6H56.13a3 3 0 1 0 0 6z" fill="#4d4d4d" class="fill-000000"></path></svg>