<svg viewBox="0 0 512 512" xml:space="preserve" xmlns="http://www.w3.org/2000/svg"><path d="M256.001 501a29.974 29.974 0 0 1-16.107-4.69l-220-140A30 30 0 0 1 6 331V181a30 30 0 0 1 46.106-25.31l220 140A30 30 0 0 1 286 321v150a30.002 30.002 0 0 1-29.999 30zM66 314.531 226 416.35v-78.881L66 235.65v78.881z" fill="#4d4d4d" class="fill-000000"></path><path d="M255.999 501A30 30 0 0 1 226 471V321a30 30 0 0 1 13.894-25.31l220-140a30.004 30.004 0 0 1 30.543-.988A30.002 30.002 0 0 1 506 181v150a30 30 0 0 1-13.894 25.31l-220 140a29.977 29.977 0 0 1-16.107 4.69zM286 337.469v78.881l160-101.818V235.65L286 337.469zM35.999 361A30 30 0 0 1 6 331V181a30 30 0 0 1 13.894-25.31l220-140a30.004 30.004 0 0 1 30.543-.988A30.002 30.002 0 0 1 286 41v150a30 30 0 0 1-13.894 25.31l-220 140A29.974 29.974 0 0 1 35.999 361zM66 197.468v78.881l160-101.818V95.65L66 197.468z" fill="#4d4d4d" class="fill-000000"></path><path d="M476.001 361a29.977 29.977 0 0 1-16.107-4.69l-220-140A30 30 0 0 1 226 191V41a30 30 0 0 1 46.106-25.31l220 140A30 30 0 0 1 506 181v150a30.002 30.002 0 0 1-29.999 30zM286 174.532 446 276.35v-78.881L286 95.65v78.882z" fill="#4d4d4d" class="fill-000000"></path><g><path d="M256 481a9.99 9.99 0 0 1-5.369-1.563l-220-140A10.002 10.002 0 0 1 26 331V181a9.998 9.998 0 0 1 15.369-8.436l220 140a10.002 10.002 0 0 1 4.631 8.437v150A10 10 0 0 1 256 481zM46 325.511l200 127.272V326.489L46 199.217v126.294z" fill="#ffffff" class="fill-ffffff"></path><path d="M256 481a9.998 9.998 0 0 1-10-10V321c0-3.419 1.747-6.601 4.631-8.437l220-140a10.007 10.007 0 0 1 10.182-.33A10.002 10.002 0 0 1 486 181v150c0 3.419-1.747 6.601-4.631 8.437l-220 140A9.995 9.995 0 0 1 256 481zm10-154.511v126.294l200-127.272V199.217L266 326.489zM36 341a10 10 0 0 1-10-10V181c0-3.419 1.747-6.601 4.631-8.437l220-140A10.001 10.001 0 0 1 266 41v150c0 3.419-1.747 6.601-4.631 8.437l-220 140A9.993 9.993 0 0 1 36 341zm10-154.511v126.294l200-127.272V59.217L46 186.489z" fill="#ffffff" class="fill-ffffff"></path><path d="M476 341a9.995 9.995 0 0 1-5.369-1.563l-220-140A10.002 10.002 0 0 1 246 191V41a9.998 9.998 0 0 1 15.369-8.436l220 140a10 10 0 0 1 4.631 8.437v150A10 10 0 0 1 476 341zM266 185.511l200 127.272V186.489L266 59.217v126.294z" fill="#ffffff" class="fill-ffffff"></path></g></svg>