<svg width="100" height="100" viewBox="0 0 100 100" fill="none" xmlns="http://www.w3.org/2000/svg">
<rect width="100" height="100" fill="white"/>
<path d="M25.132 74.768H26.332L27.988 80.576C28.044 80.76 28.148 81.18 28.3 81.836H28.36L28.6 80.576L29.872 74.768H31.504L32.824 80.576L33.076 81.836H33.136C33.296 81.18 33.404 80.76 33.46 80.576L35.056 74.768H36.196L33.82 83H32.248L30.952 77.228C30.88 76.892 30.788 76.444 30.676 75.884H30.616C30.52 76.492 30.44 76.94 30.376 77.228L29.08 83H27.508L25.132 74.768ZM39.6011 83.144C38.5851 83.144 37.8291 82.876 37.3331 82.34C36.8371 81.804 36.5891 80.972 36.5891 79.844C36.5891 78.716 36.8371 77.884 37.3331 77.348C37.8291 76.812 38.5851 76.544 39.6011 76.544C40.5131 76.544 41.1931 76.788 41.6411 77.276C42.0971 77.756 42.3251 78.532 42.3251 79.604V80.132H37.6811C37.7211 80.86 37.8931 81.4 38.1971 81.752C38.5091 82.096 38.9771 82.268 39.6011 82.268C40.1051 82.268 40.5131 82.152 40.8251 81.92C41.1371 81.688 41.2931 81.332 41.2931 80.852H42.3251C42.3251 81.588 42.0691 82.156 41.5571 82.556C41.0531 82.948 40.4011 83.144 39.6011 83.144ZM41.2211 79.256C41.2211 78.032 40.6811 77.42 39.6011 77.42C39.0011 77.42 38.5491 77.564 38.2451 77.852C37.9491 78.14 37.7691 78.608 37.7051 79.256H41.2211ZM46.5451 83.144C46.1291 83.144 45.7491 83.06 45.4051 82.892C45.0691 82.724 44.7971 82.476 44.5891 82.148H44.5171L44.3851 83H43.5931V74.324H44.6491V77.408H44.7211C44.9291 77.104 45.1891 76.884 45.5011 76.748C45.8131 76.612 46.1931 76.544 46.6411 76.544C47.3851 76.544 47.9691 76.82 48.3931 77.372C48.8251 77.916 49.0411 78.74 49.0411 79.844C49.0411 80.972 48.8251 81.804 48.3931 82.34C47.9611 82.876 47.3451 83.144 46.5451 83.144ZM46.2811 82.268C46.6891 82.268 47.0131 82.192 47.2531 82.04C47.4931 81.888 47.6691 81.64 47.7811 81.296C47.8931 80.952 47.9491 80.484 47.9491 79.892V79.844C47.9491 79.244 47.8931 78.768 47.7811 78.416C47.6691 78.064 47.4891 77.812 47.2411 77.66C47.0011 77.5 46.6811 77.42 46.2811 77.42C45.7211 77.42 45.3091 77.624 45.0451 78.032C44.7811 78.44 44.6491 79.044 44.6491 79.844V79.892C44.6491 80.676 44.7771 81.268 45.0331 81.668C45.2971 82.068 45.7131 82.268 46.2811 82.268ZM53.7449 74.768H56.7929C58.1129 74.768 59.1289 75.108 59.8409 75.788C60.5529 76.46 60.9089 77.492 60.9089 78.884C60.9089 80.276 60.5529 81.312 59.8409 81.992C59.1289 82.664 58.1129 83 56.7929 83H53.7449V74.768ZM56.7929 82.004C57.7449 82.004 58.4689 81.764 58.9649 81.284C59.4689 80.804 59.7249 80.012 59.7329 78.908V78.884C59.7329 77.772 59.4809 76.976 58.9769 76.496C58.4809 76.008 57.7529 75.764 56.7929 75.764H54.8849V82.004H56.7929ZM64.937 83.144C63.921 83.144 63.165 82.876 62.669 82.34C62.173 81.804 61.925 80.972 61.925 79.844C61.925 78.716 62.173 77.884 62.669 77.348C63.165 76.812 63.921 76.544 64.937 76.544C65.849 76.544 66.529 76.788 66.977 77.276C67.433 77.756 67.661 78.532 67.661 79.604V80.132H63.017C63.057 80.86 63.229 81.4 63.533 81.752C63.845 82.096 64.313 82.268 64.937 82.268C65.441 82.268 65.849 82.152 66.161 81.92C66.473 81.688 66.629 81.332 66.629 80.852H67.661C67.661 81.588 67.405 82.156 66.893 82.556C66.389 82.948 65.737 83.144 64.937 83.144ZM66.557 79.256C66.557 78.032 66.017 77.42 64.937 77.42C64.337 77.42 63.885 77.564 63.581 77.852C63.285 78.14 63.105 78.608 63.041 79.256H66.557ZM68.281 76.688H69.397L70.513 79.844C70.673 80.292 70.881 80.952 71.137 81.824H71.197C71.429 81 71.633 80.34 71.809 79.844L72.913 76.688H73.969L71.653 83H70.597L68.281 76.688Z" fill="#4D4D4D"/>
<path d="M47.65 20.7H53.7L67 55H61.95L58.5 45.85H42.6L39.25 55H34.35L47.65 20.7ZM56.95 41.7L52.95 31L50.65 24.8H50.4L48.15 30.9L44.15 41.7H56.95Z" fill="#FF7A00"/>
<path d="M68.35 59.8H73.8V21.5H68.35V18.25H77.75V63.05H68.35V59.8Z" fill="#FF7A00"/>
<path d="M23.15 18.25H32.55V21.5H27.1V59.8H32.55V63.05H23.15V18.25Z" fill="#FF7A00"/>
</svg>
